<svg width="145" height="50" viewBox="0 0 145 50" fill="none" xmlns="http://www.w3.org/2000/svg">
<path d="M48.7236 32.5046H53.981L55.5003 26.8102H58.3046L60.0574 32.5046H65.6658L63.3285 25.862L63.7964 25.624C64.0298 25.624 64.38 25.387 64.7311 25.15C65.198 24.7935 65.5482 24.5574 66.016 24.0824C66.3662 23.7259 66.8341 23.2518 67.1842 22.5398C67.6512 21.9472 67.8855 21.2342 68.119 20.5231C68.5868 18.7435 68.2357 17.3194 67.301 16.1342C66.2495 14.8287 64.7302 14.2361 62.744 14.2361H53.6318L48.7236 32.5046ZM62.8607 20.5231C62.744 20.9972 62.3938 21.4722 61.9259 21.8287C61.459 22.1842 60.8745 22.3028 60.2908 22.3028H56.6686L57.72 18.7435H61.2256C61.8092 18.7435 62.277 18.862 62.6272 19.2185C62.8607 19.574 62.9783 20.0481 62.8607 20.5231ZM75.3635 32.5046H80.154L83.4252 19.6926H78.7514L77.1154 26.2176C76.8819 26.9296 76.5317 27.5231 75.9481 27.9972C75.4439 28.3857 74.8273 28.594 74.1944 28.5898C73.7275 28.5898 73.2597 28.4713 73.0271 27.9972C72.676 27.6407 72.676 27.1666 72.7927 26.6916L74.6622 19.6926H69.9885L67.8855 27.4037C67.5344 29.0648 67.6512 30.3694 68.3525 31.3185C69.0537 32.2676 70.1052 32.7426 71.6245 32.7426C72.3249 32.7426 73.0262 32.6231 73.8442 32.2676C74.5455 32.0305 75.0124 31.675 75.2459 31.5555C75.4803 31.3185 75.7137 31.2 75.8304 31.0815L75.3635 32.5046ZM90.2009 19.6926H85.5272L82.1393 32.5046H86.813L88.5649 26.099C88.6825 25.387 89.1495 24.7935 89.6164 24.3194C90.2009 23.8444 90.7855 23.6074 91.3692 23.6074C91.9537 23.6074 92.4206 23.8444 92.655 24.2C92.8885 24.5565 92.8885 25.15 92.7717 25.7426L91.019 32.5046H95.6927L97.6789 24.912C98.1458 23.3703 98.0291 22.0657 97.3287 20.9972C96.6275 20.049 95.576 19.4555 94.1734 19.4555C93.3554 19.4555 92.655 19.6926 91.9537 20.0481C91.1357 20.2861 90.6679 20.6416 90.4344 20.7611C90.0842 20.9972 89.9675 21.1166 89.8508 21.3537L90.2009 19.6926Z" fill="#71B92F"/>
<path d="M103.054 14.2352L98.2635 32.5047H103.521L104.923 27.0482H108.428C110.532 27.0482 112.401 26.4556 114.037 25.2686C115.789 23.963 116.841 22.5399 117.309 20.6417C117.776 18.8621 117.542 17.3204 116.491 16.1334C115.439 14.8287 113.92 14.2352 111.817 14.2352H103.054ZM110.298 18.7445C110.999 18.7445 111.467 18.8621 111.7 19.3371C112.05 19.6926 112.167 20.1676 112.05 20.6426C111.934 21.2352 111.583 21.5908 110.999 22.0658C110.532 22.4213 109.947 22.6584 109.363 22.6584H106.092L107.143 18.7436L110.298 18.7445ZM126.422 32.5047L128.525 24.5565C128.876 23.1334 128.642 21.9463 127.708 20.9973C126.773 20.0491 125.487 19.4556 123.618 19.4556C122.917 19.4556 122.216 19.5741 121.515 19.8112C120.904 19.9181 120.313 20.1179 119.762 20.4037C119.295 20.5232 118.827 20.8787 118.477 21.1167C118.172 21.2644 117.895 21.4649 117.659 21.7093C117.542 21.8278 117.425 21.9463 117.309 21.9463L119.061 24.3195L119.528 23.9639C119.762 23.726 120.113 23.6075 120.697 23.3704C121.281 23.1334 121.748 23.0149 122.333 23.0149C122.917 23.0149 123.384 23.1334 123.618 23.3704C123.969 23.6075 123.969 23.963 123.852 24.3195L119.879 25.0315C118.477 25.3871 117.309 25.8612 116.374 26.5732C115.439 27.1658 114.855 28.1158 114.621 29.0639C114.388 30.1325 114.504 30.9621 115.205 31.675C115.789 32.3862 116.841 32.7426 118.127 32.7426C118.827 32.7426 119.528 32.6232 120.23 32.2676C120.93 32.0306 121.398 31.675 121.631 31.5556L122.099 31.0815L121.748 32.5047H126.422ZM120.463 29.4213C119.645 29.4213 119.412 29.0649 119.528 28.3528C119.645 28.1158 119.762 27.8787 120.113 27.6408C120.346 27.4037 120.697 27.2852 121.048 27.1667L123.267 26.8112L123.151 27.1667C123.09 27.4838 122.965 27.7846 122.784 28.0501C122.603 28.3157 122.37 28.5401 122.099 28.7093C121.631 29.1834 121.048 29.4213 120.463 29.4213ZM131.329 32.7426C130.745 33.5723 129.927 33.9278 128.993 33.9278C128.515 33.9275 128.042 33.8478 127.59 33.6917L126.655 37.6065H126.89C127.123 37.725 127.357 37.8436 127.824 37.8436C128.291 37.9621 128.642 37.9621 129.109 37.9621C130.394 37.9621 131.68 37.4871 132.848 36.6565C134.016 35.8269 135.302 34.4028 136.471 32.5047L145 19.6926H139.975L135.536 27.1667L135.068 19.6926H130.044L131.68 32.2676L131.329 32.7426Z" fill="#1F478D"/>
<path fill-rule="evenodd" clip-rule="evenodd" d="M22.434 0C34.8182 0 44.867 10.2019 44.867 22.7778C44.867 35.3519 34.8191 45.5546 22.433 45.5546C10.0497 45.5546 0 35.3528 0 22.7769C0 10.2037 10.0479 0 22.434 0Z" fill="#1F478D"/>
<path fill-rule="evenodd" clip-rule="evenodd" d="M7.71145 28.5908L5.72522 35.7084H14.7216L17.058 26.8102L17.5258 25.15C16.24 25.2685 8.29509 26.2176 7.71145 28.5908Z" fill="#FEFEFE"/>
<path fill-rule="evenodd" clip-rule="evenodd" d="M24.4202 20.5232L20.5645 14.5917H11.9174C11.5672 14.5917 10.7501 14.9472 11.1003 15.4222L14.7216 20.9972C15.3062 20.4046 17.877 20.5232 19.8632 20.5232H24.4202Z" fill="url(#paint0_linear_0_47)"/>
<path fill-rule="evenodd" clip-rule="evenodd" d="M26.5222 36.0649H36.2199C35.5195 35.8269 34.7015 35.2334 34.2337 34.5223L28.8586 26.6926C27.2639 27.1609 25.6125 27.4003 23.9524 27.4037H19.1601L24.3016 34.7593C24.7686 35.4713 25.5884 36.0649 26.5222 36.0649Z" fill="url(#paint1_linear_0_47)"/>
<path d="M14.8383 8.89811L11.2161 14.3546C10.8659 14.8287 10.8659 14.9472 10.9826 15.3037C11.2161 14.4731 12.2685 14.5916 12.7354 14.5916H26.7566C27.8081 14.5916 28.5085 14.8287 29.093 15.4222C29.6767 16.1342 29.911 16.7277 29.6767 17.5574C29.4432 18.3879 28.9763 19.1 28.0415 19.6926C27.1068 20.2851 26.172 20.5231 25.1206 20.5231H17.7593C16.5911 20.5231 15.1885 20.2861 14.2538 21.2351L9.34748 26.337C8.76292 26.9296 8.17836 27.5222 7.82817 28.2351C8.29509 27.8787 8.87965 27.4037 9.4633 27.4037H23.8347C27.457 27.4037 30.6123 26.4546 33.4157 24.5564C36.1032 22.6583 37.8569 20.4046 38.674 17.5574C39.3752 14.7101 38.7907 12.4555 37.0379 10.5574C35.2852 8.65922 32.5985 7.82959 28.9763 7.82959H18.1095C16.9422 7.82959 15.4229 8.06755 14.8383 8.89811Z" fill="#FEFEFE"/>
<path fill-rule="evenodd" clip-rule="evenodd" d="M7.24362 30.3704C8.17837 28.2352 15.3053 27.7602 16.8246 27.6417L16.9413 27.4047H9.46331C8.52856 27.4047 7.94491 27.8787 7.59381 28.8278L7.24362 30.3704Z" fill="#D9DADA"/>
<defs>
<linearGradient id="paint0_linear_0_47" x1="17.7274" y1="20.9472" x2="17.7274" y2="14.5796" gradientUnits="userSpaceOnUse">
<stop stop-color="#A1C527"/>
<stop offset="0.439" stop-color="#9EC428"/>
<stop offset="0.729" stop-color="#95C12B"/>
<stop offset="0.831" stop-color="#46A33A"/>
<stop offset="1" stop-color="#18993C"/>
</linearGradient>
<linearGradient id="paint1_linear_0_47" x1="27.7032" y1="35.9908" x2="27.7032" y2="26.675" gradientUnits="userSpaceOnUse">
<stop stop-color="#A1C527"/>
<stop offset="0.439" stop-color="#9EC428"/>
<stop offset="0.729" stop-color="#95C12B"/>
<stop offset="0.831" stop-color="#46A33A"/>
<stop offset="1" stop-color="#18993C"/>
</linearGradient>
</defs>
</svg>
