<svg width="61" height="61" viewBox="0 0 61 61" fill="none" xmlns="http://www.w3.org/2000/svg">
<g id="Social">
<g id="Background" filter="url(#filter0_d_0_19)">
<path fill-rule="evenodd" clip-rule="evenodd" d="M30.16 49C41.294 49 50.32 39.8218 50.32 28.5C50.32 17.1782 41.294 8 30.16 8C19.0259 8 10 17.1782 10 28.5C10 39.8218 19.0259 49 30.16 49Z" fill="white"/>
</g>
<path id="Vector" d="M35.5164 22.8096C35.3962 22.7475 35.2791 22.6794 35.1657 22.6055C34.8359 22.3875 34.5335 22.1306 34.2651 21.8404C33.5934 21.0718 33.3425 20.2921 33.2501 19.7463H33.2538C33.1766 19.2932 33.2086 19 33.2134 19H30.1541V30.8297C30.1541 30.9886 30.1541 31.1455 30.1474 31.3006C30.1474 31.3199 30.1455 31.3378 30.1444 31.3585C30.1444 31.3671 30.1444 31.376 30.1426 31.3849C30.1426 31.3871 30.1426 31.3893 30.1426 31.3916C30.1103 31.816 29.9743 32.226 29.7464 32.5856C29.5185 32.9451 29.2057 33.2431 28.8356 33.4534C28.4499 33.6728 28.0136 33.7879 27.5698 33.7873C26.1444 33.7873 24.9892 32.6251 24.9892 31.1897C24.9892 29.7543 26.1444 28.592 27.5698 28.592C27.8396 28.5918 28.1078 28.6342 28.3643 28.7178L28.368 25.6029C27.5892 25.5023 26.798 25.5642 26.0444 25.7846C25.2907 26.0051 24.5909 26.3794 23.9891 26.8839C23.4618 27.342 23.0185 27.8887 22.6791 28.4993C22.55 28.7219 22.0628 29.6166 22.0038 31.0687C21.9666 31.8929 22.2142 32.7468 22.3322 33.0997V33.1071C22.4064 33.3149 22.694 34.0241 23.1627 34.6219C23.5406 35.1015 23.9871 35.5227 24.4879 35.8721V35.8647L24.4953 35.8721C25.9763 36.8786 27.6184 36.8125 27.6184 36.8125C27.9027 36.801 28.8549 36.8125 29.9363 36.3C31.1356 35.7319 31.8184 34.8854 31.8184 34.8854C32.2547 34.3796 32.6015 33.8032 32.8441 33.181C33.121 32.4533 33.2134 31.5804 33.2134 31.2316V24.9557C33.2505 24.9779 33.7448 25.3049 33.7448 25.3049C33.7448 25.3049 34.4569 25.7613 35.568 26.0586C36.3651 26.2701 37.439 26.3146 37.439 26.3146V23.2776C37.0627 23.3184 36.2987 23.1997 35.5164 22.8096Z" fill="black"/>
</g>
<defs>
<filter id="filter0_d_0_19" x="0" y="0" width="60.32" height="61" filterUnits="userSpaceOnUse" color-interpolation-filters="sRGB">
<feFlood flood-opacity="0" result="BackgroundImageFix"/>
<feColorMatrix in="SourceAlpha" type="matrix" values="0 0 0 0 0 0 0 0 0 0 0 0 0 0 0 0 0 0 127 0" result="hardAlpha"/>
<feOffset dy="2"/>
<feGaussianBlur stdDeviation="5"/>
<feColorMatrix type="matrix" values="0 0 0 0 0 0 0 0 0 0 0 0 0 0 0 0 0 0 0.1 0"/>
<feBlend mode="normal" in2="BackgroundImageFix" result="effect1_dropShadow_0_19"/>
<feBlend mode="normal" in="SourceGraphic" in2="effect1_dropShadow_0_19" result="shape"/>
</filter>
</defs>
</svg>
